# xmcd
#
# Track frame offsets: 
#        150
#        16547
#        44149
#        58718
#        71424
#        106410
#        129408
#        145930
#        157653
#        176986
#        198359
#        210879
#        241238
#
# Disc length: 3456 seconds
#
# Revision: 0
# Processed by: cddbd v1.5.2PL0 Copyright (c) Steve Scherf et al.
# Submitted via: ExactAudioCopy v1.0b3
#
DISCID=ac0d7e0d
DTITLE=The Bornia Boys - Takin' the High Road
DYEAR=2012
DGENRE=Blues
TTITLE0=Highway 49
TTITLE1=Smokestack Lightning
TTITLE2=Dirty Shirt
TTITLE3=Takin' the High Road
TTITLE4=Long Distance Call
TTITLE5=Voodoo Man
TTITLE6=Tell Me Mama
TTITLE7=Driving Wheel
TTITLE8=Graspin' At Straws
TTITLE9=Five Long Years
TTITLE10=Blow Wind Blow
TTITLE11=Match Box Blues
TTITLE12=Born in Chicago
EXTD=
EXTT0=
EXTT1=
EXTT2=
EXTT3=
EXTT4=
EXTT5=
EXTT6=
EXTT7=
EXTT8=
EXTT9=
EXTT10=
EXTT11=
EXTT12=
PLAYORDER=
